# xmcd
#
# Track frame offsets:
#	150
#	14781
#	50918
#	65482
#	92555
#	136869
#	150701
#	176182
#
# Disc length: 2497 seconds
#
# Revision: 0
# Processed by: cddbd v1.5.2PL0 Copyright (c) Steve Scherf et al.
# Submitted via: EZCDAudioConverter 2.1.7.1
#
DISCID=7009bf08
DTITLE=Alfonso Lovo - La Gigantona
DYEAR=2012
DGENRE=
TTITLE0=Nueva Segovia
TTITLE1=La Bomba De Neutrón
TTITLE2=Tropical Jazz
TTITLE3=Los Conquistadores
TTITLE4=Sinfonía Del Espacio De Do Menor
TTITLE5=La Gigantona
TTITLE6=Firebird Feathers
TTITLE7=Río San Juan Drums
EXTD=
EXTT0=
EXTT1=
EXTT2=
EXTT3=
EXTT4=
EXTT5=
EXTT6=
EXTT7=
PLAYORDER=
